<svg xmlns="http://www.w3.org/2000/svg" viewBox="0 0 240 240">
  <circle cx="120" cy="120" r="120" fill="#034694"/>
  <path fill="#FFF" d="M120 30c49.706 0 90 40.294 90 90s-40.294 90-90 90-90-40.294-90-90 40.294-90 90-90zm0 20c-38.66 0-70 31.34-70 70s31.34 70 70 70 70-31.34 70-70-31.34-70-70-70z"/>
  <path fill="#FFF" d="M120 60c33.137 0 60 26.863 60 60s-26.863 60-60 60-60-26.863-60-60 26.863-60 60-60zm0 20c-22.091 0-40 17.909-40 40s17.909 40 40 40 40-17.909 40-40-17.909-40-40-40z"/>
  <path fill="#FFF" d="M120 90c16.569 0 30 13.431 30 30s-13.431 30-30 30-30-13.431-30-30 13.431-30 30-30z"/>
</svg> 